<svg xmlns="http://www.w3.org/2000/svg" fill="none" viewBox="0 0 300 100" width="300" height="100"><defs><clipPath id="assetClipPath_-dBD_tPt"><path d="m0 0 h 105 v 56 h -105 v -56 z" id="path_va8nC32r" fill="#ffffff" /></clipPath><clipPath id="assetClipPath_asHxg431"><path d="m0 0 h 359 v 198 h -359 v -198 z" id="path_ib-lWObI" fill="#ffffff" /></clipPath><clipPath id="clipPath_tF1qrcRY"><rect width="105.00000000000001" height="56" rx="4" ry="4" stroke-linejoin="round" stroke="#000000" style="stroke-width:0;vector-effect:non-scaling-stroke;" /></clipPath></defs><g transform="translate(162 25)" data-asset-index="1"><g clip-path="url(#assetClipPath_-dBD_tPt)" transform="scale(1 1)" data-asset-index="1"><rect width="105.00000000000001" height="56" fill="#000000" rx="4" ry="4" stroke-linejoin="round" clip-path="url(#clipPath_tF1qrcRY)" id="ISU1uu72f1oTiC7WRhueR" stroke="#000000" style="stroke-width:0;vector-effect:non-scaling-stroke;" /></g></g><g transform="translate(-22 -42)" data-asset-index="-1"><g clip-path="url(#assetClipPath_asHxg431)" transform="scale(1 1)" data-asset-index="-1"><path fill="#FFFFFF" d="M100.20 76.41L100.20 118.41L89.40 118.41L89.40 101.31L74.40 101.31L74.40 118.41L63.60 118.41L63.60 76.41L74.40 76.41L74.40 92.91L89.40 92.91L89.40 76.41L100.20 76.41Z" /><path fill="#FFFFFF" d="M105 87.81L120 87.81L120 118.41L109.50 118.41L109.50 95.91L105 95.91L105 87.81ZM109.50 84.21L109.50 75.81L120 75.81L120 84.21L109.50 84.21Z" /><path fill="#FFFFFF" d="M149.40 95.31L144.30 95.31Q140.52 95.31 136.50 97.11L136.50 97.11L136.50 118.41L126 118.41L126 86.61L135.30 86.61L135.90 90.51Q141.06 86.01 146.70 86.01L146.70 86.01L149.40 86.01L149.40 95.31Z" /><path fill="#FFFFFF" d="M171.30 93.51L165.90 93.51Q163.50 93.51 163.50 95.91L163.50 95.91L163.50 99.21L173.70 99.21L173.70 95.91Q173.70 93.51 171.30 93.51L171.30 93.51ZM183 110.31L183 117.81Q171.42 119.01 162 119.01L162 119.01Q157.92 119.01 155.46 116.55Q153 114.09 153 110.01L153 110.01L153 95.61Q153 91.11 155.55 88.56Q158.10 86.01 162.60 86.01L162.60 86.01L174.60 86.01Q179.10 86.01 181.65 88.56Q184.20 91.11 184.20 95.61L184.20 95.61L184.20 106.71L163.50 106.71L163.50 109.11Q163.50 110.01 164.10 110.61Q164.70 111.21 165.60 111.21L165.60 111.21Q171.54 111.21 183 110.31L183 110.31Z" /><path fill="#FFFFFF" d="M187.80 87.81L202.80 87.81L202.80 118.41L192.30 118.41L192.30 95.91L187.80 95.91L187.80 87.81ZM192.30 84.21L192.30 75.81L202.80 75.81L202.80 84.21L192.30 84.21Z" /><path fill="#FFFFFF" d="M228.60 94.71L226.50 94.71Q223.32 94.71 219.30 95.91L219.30 95.91L219.30 118.41L208.80 118.41L208.80 86.61L218.10 86.61L218.70 89.61Q221.52 87.75 224.49 86.88Q227.46 86.01 229.50 86.01L229.50 86.01L232.20 86.01Q236.28 86.01 238.74 88.47Q241.20 90.93 241.20 95.01L241.20 95.01L241.20 118.41L230.70 118.41L230.70 96.81Q230.70 95.91 230.10 95.31Q229.50 94.71 228.60 94.71L228.60 94.71Z" /><path fill="#FFFFFF" d="M279.00 95.61L279.00 109.41Q279.00 113.91 276.45 116.46Q273.90 119.01 269.40 119.01L269.40 119.01L255.60 119.01Q251.10 119.01 248.55 116.46Q246.00 113.91 246.00 109.41L246.00 109.41L246.00 95.61Q246.00 91.11 248.55 88.56Q251.10 86.01 255.60 86.01L255.60 86.01L269.40 86.01Q273.90 86.01 276.45 88.56Q279.00 91.11 279.00 95.61L279.00 95.61ZM268.50 108.51L268.50 96.51Q268.50 94.11 266.10 94.11L266.10 94.11L258.90 94.11Q256.50 94.11 256.50 96.51L256.50 96.51L256.50 108.51Q256.50 110.91 258.90 110.91L258.90 110.91L266.10 110.91Q268.50 110.91 268.50 108.51L268.50 108.51Z" /></g></g></svg>